#!OML:ASF F:\VICON\USERDATA\INSTALL\Justin_Nancy\Justin_Nancy.ASF
:FULLY-SPECIFIED
:DEGREES
450
root 1.55773 17.7024 23.637 4.01405 6.32604 -3.04368
lowerback 10.4052 1.39218 -0.854118
upperback -0.728425 1.85269 1.56189
thorax -6.69273 0.968159 1.82648
lowerneck -14.894 -6.48783 -11.3542
upperneck 15.7684 -8.46607 11.314
head 8.33059 -3.66335 4.65127
rclavicle -1.07841e-014 -4.02539e-015
rhumerus -33.6536 -14.9838 -80.8638
rradius 37.7998
rwrist 6.26032
rhand -18.7525 13.4008
rfingers 7.12502
rthumb 7.54403 -16.4447
lclavicle -1.07841e-014 -4.02539e-015
lhumerus -47.5621 27.2728 66.1016
lradius 30.628
lwrist -4.67005
lhand -24.6344 18.1284
lfingers 7.12502
lthumb 1.86466 48.1
rfemur -11.8783 2.08851 19.3405
rtibia 47.6858
rfoot -10.2559 -12.2985
rtoes 9.12323
lfemur -17.1743 -1.11318 -19.9659
ltibia 32.0787
lfoot -10.3326 6.93825
ltoes -9.17578
451
root 1.55054 17.7445 23.6996 4.02055 5.91124 -3.12779
lowerback 10.4136 1.31875 -0.800894
upperback -0.723197 1.75623 1.48655
thorax -6.68371 0.917377 1.73264
lowerneck -15.1224 -6.50888 -11.1779
upperneck 15.7612 -8.54268 11.4555
head 8.37776 -3.66855 4.6562
rclavicle -1.85972e-015 8.76516e-015
rhumerus -34.0006 -15.7887 -80.6318
rradius 36.8336
rwrist 6.3478
rhand -19.5129 14.1918
rfingers 7.12502
rthumb 6.81006 -15.6787
lclavicle -1.85972e-015 8.76516e-015
lhumerus -47.4927 26.7398 66.8963
lradius 30.7185
lwrist -4.33298
lhand -24.9963 18.1983
lfingers 7.12502
lthumb 1.51511 48.1727
rfemur -12.5294 1.95235 19.2758
rtibia 47.1337
rfoot -10.3301 -11.8895
rtoes 6.51381
lfemur -16.7559 -1.08256 -19.7367
ltibia 31.8018
lfoot -10.1936 6.84583
ltoes -8.37824
452
root 1.54634 17.7793 23.7617 4.03504 5.46959 -3.19879
lowerback 10.2813 1.25451 -0.821964
upperback -0.644705 1.66695 1.48215
thorax -6.52232 0.873083 1.75716
lowerneck -15.4499 -6.42851 -11.0678
upperneck 15.7718 -8.44949 11.5705
head 8.42926 -3.59643 4.68519
rclavicle 1.16413e-014 1.64494e-014
rhumerus -34.0754 -16.4431 -80.2762
rradius 35.6509
rwrist 6.46338
rhand -18.6254 13.4989
rfingers 7.12502
rthumb 7.66677 -16.3422
lclavicle 1.16413e-014 1.64494e-014
lhumerus -47.4911 25.1751 68.5428
lradius 31.69
lwrist -2.5555
lhand -25.0675 19.512
lfingers 7.12502
lthumb 1.44635 49.4868
rfemur -13.1293 1.82273 19.166
rtibia 46.506
rfoot -10.657 -11.3288
rtoes 6.39828
lfemur -16.3508 -1.06071 -19.5381
ltibia 31.6322
lfoot -9.98432 6.86005
ltoes -5.75973
453
root 1.54532 17.8102 23.8175 4.0693 5.11502 -3.29521
lowerback 10.3912 1.14423 -0.784075
upperback -0.680525 1.5278 1.52488
thorax -6.61744 0.805003 1.80106
lowerneck -15.6751 -6.43338 -11.1396
upperneck 15.6922 -8.43079 11.6713
head 8.44896 -3.57612 4.72968
rclavicle -1.54741e-014 -1.9133e-015
rhumerus -34.3238 -16.9904 -79.8295
rradius 34.6795
rwrist 6.47236
rhand -19.2808 13.5812
rfingers 7.12502
rthumb 7.03411 -16.2819
lclavicle -1.54741e-014 -1.9133e-015
lhumerus -47.7345 23.3104 70.3728
lradius 33.0162
lwrist -0.246134
lhand -24.9992 20.7773
lfingers 7.12502
lthumb 1.51234 50.7517
rfemur -13.7203 1.5276 19.0715
rtibia 45.7842
rfoot -11.0156 -10.6951
rtoes 7.66751
lfemur -16.1265 -1.23652 -19.2919
ltibia 31.4971
lfoot -9.55021 6.81616
ltoes -3.76084
454
root 1.53996 17.8363 23.8741 4.03963 4.82171 -3.50341
lowerback 10.7984 0.998814 -0.372033
upperback -0.832714 1.37862 1.37489
thorax -6.99037 0.715944 1.42852
lowerneck -15.6968 -6.47295 -10.8685
upperneck 15.5498 -8.54946 11.7291
head 8.41102 -3.61144 4.6856
rclavicle 2.31211e-014 -2.0276e-014
rhumerus -34.9028 -17.5887 -79.7129
rradius 33.7834
rwrist 5.8264
rhand -19.5837 14.192
rfingers 7.12502
rthumb 6.7417 -15.6807
lclavicle 2.31211e-014 -2.0276e-014
lhumerus -47.7575 22.1985 71.1729
lradius 33.4106
lwrist 0.928918
lhand -24.6246 21.5481
lfingers 7.12502
lthumb 1.87409 51.5196
rfemur -14.2304 1.31469 19.1638
rtibia 44.9741
rfoot -11.2374 -10.1571
rtoes 8.03307
lfemur -15.8921 -1.40359 -18.9177
ltibia 31.3368
lfoot -9.19669 6.73005
ltoes -5.36123
455
root 1.5372 17.8605 23.9381 3.99114 4.55049 -3.54442
lowerback 10.5634 1.01623 -0.672536
upperback -0.598889 1.37997 1.6688
thorax -6.62383 0.730799 1.91168
lowerneck -15.731 -6.52898 -10.9522
upperneck 15.1115 -8.50835 11.4592
head 8.25622 -3.62542 4.60498
rclavicle 9.43295e-015 -9.64106e-015
rhumerus -34.8439 -18.0258 -78.9092
rradius 32.7636
rwrist 5.17596
rhand -19.5731 14.9999
rfingers 7.12502
rthumb 6.75195 -14.8724
lclavicle 9.43295e-015 -9.64106e-015
lhumerus -47.0017 22.6216 72.2371
lradius 32.805
lwrist 0.647693
lhand -24.2612 22.4778
lfingers 7.12502
lthumb 2.22509 52.4459
rfemur -14.6695 1.05801 19.0553
rtibia 44.0501
rfoot -11.2315 -9.58383
rtoes 7.12807
lfemur -15.5213 -1.39309 -18.8035
ltibia 31.1567
lfoot -8.97557 6.71008
ltoes -8.88891
456
root 1.54481 17.8854 24.0015 3.98631 4.43705 -3.45833
lowerback 10.2727 0.904892 -0.707993
upperback -0.427867 1.22739 1.71099
thorax -6.27348 0.655007 2.0041
lowerneck -15.7612 -6.50058 -10.8771
upperneck 14.779 -8.42234 11.2993
head 8.12951 -3.59746 4.54468
rclavicle -2.11985e-014 -2.26832e-014
rhumerus -34.8346 -18.5457 -78.3313
rradius 31.8852
rwrist 5.04089
rhand -18.903 14.1132
rfingers 7.12502
rthumb 7.39879 -15.7374
lclavicle -2.11985e-014 -2.26832e-014
lhumerus -46.2592 23.1097 72.8217
lradius 32.0553
lwrist 0.216337
lhand -23.839 23.522
lfingers 7.12502
lthumb 2.63282 53.4855
rfemur -15.0557 0.407359 18.7359
rtibia 43.0447
rfoot -11.1757 -8.9114
rtoes 6.11305
lfemur -15.102 -1.48064 -18.8897
ltibia 30.9507
lfoot -8.84589 6.70369
ltoes -10.3562
457
root 1.5494 17.9134 24.0574 3.99065 4.24666 -3.74718
lowerback 10.0033 0.746138 -0.401809
upperback -0.256471 1.05767 1.84454
thorax -5.92998 0.561371 2.00006
lowerneck -15.9423 -6.47048 -10.7417
upperneck 14.6125 -8.34907 11.1372
head 8.08367 -3.56561 4.47158
rclavicle -1.05402e-014 -1.61885e-014
rhumerus -34.8549 -18.7333 -77.9523
rradius 31.1463
rwrist 4.92386
rhand -18.0907 12.3951
rfingers 7.12502
rthumb 8.18279 -17.4265
lclavicle -1.05402e-014 -1.61885e-014
lhumerus -45.6293 23.3783 73.4224
lradius 31.6659
lwrist 0.00704236
lhand -23.42 23.0941
lfingers 7.12502
lthumb 3.03753 53.0522
rfemur -15.4966 0.0146866 18.8911
rtibia 41.9725
rfoot -11.2333 -8.36971
rtoes 5.79561
lfemur -14.7594 -1.59619 -18.5497
ltibia 30.7265
lfoot -8.65714 6.79962
ltoes -10.6452
458
root 1.54217 17.9356 24.1136 3.97854 3.7599 -3.89652
lowerback 9.93805 0.71774 -0.40346
upperback -0.1528 1.02397 1.95113
thorax -5.78481 0.545122 2.11839
lowerneck -16.0433 -6.41645 -10.6514
upperneck 14.462 -8.24438 10.989
head 8.02814 -3.52273 4.41685
rclavicle -1.23029e-014 -4.50993e-015
rhumerus -34.939 -19.0135 -77.4744
rradius 30.2557
rwrist 5.12946
rhand -17.6685 11.841
rfingers 7.12502
rthumb 8.59024 -17.9642
lclavicle -1.23029e-014 -4.50993e-015
lhumerus -45.1603 23.4174 74.018
lradius 31.4827
lwrist -0.326488
lhand -23.7326 20.6996
lfingers 7.12502
lthumb 2.73559 50.6618
rfemur -15.9742 0.0530298 18.9745
rtibia 40.8696
rfoot -11.1078 -8.04136
rtoes 5.72133
lfemur -14.3842 -1.59413 -18.3303
ltibia 30.51
lfoot -8.52123 7.07943
ltoes -9.34697
459
root 1.52788 17.9511 24.1743 3.95449 3.3163 -3.78336
lowerback 9.74679 0.718398 -0.727092
upperback 0.0466526 0.986223 1.99529
thorax -5.47216 0.532939 2.3543
lowerneck -16.2335 -6.45478 -10.5948
upperneck 14.2337 -8.24703 10.8542
head 7.97748 -3.52915 4.35527
rclavicle -1.39988e-014 -1.24737e-014
rhumerus -34.8277 -19.3407 -77.0577
rradius 29.4673
rwrist 5.5232
rhand -17.3936 11.5088
rfingers 7.12502
rthumb 8.85557 -18.2854
lclavicle -1.39988e-014 -1.24737e-014
lhumerus -44.3689 23.4721 74.5795
lradius 30.8906
lwrist -0.923687
lhand -24.4422 18.6845
lfingers 7.12502
lthumb 2.05029 48.6544
rfemur -16.4102 0.0654804 18.8281
rtibia 39.7529
rfoot -11.0239 -8.06628
rtoes 4.96898
lfemur -13.9559 -1.53022 -18.4051
ltibia 30.2553
lfoot -8.50179 7.36202
ltoes -8.39275
460
root 1.52045 17.963 24.2385 3.9915 3.05218 -3.68769
lowerback 9.20149 0.655401 -0.916461
upperback 0.36177 0.877932 2.02558
thorax -4.83357 0.477171 2.51085
lowerneck -16.5365 -6.53964 -10.571
upperneck 14.0696 -8.32482 10.8443
head 7.98392 -3.55742 4.33024
rclavicle 1.08151e-014 1.35919e-014
rhumerus -34.661 -19.5702 -76.7766
rradius 29.0434
rwrist 5.87211
rhand -17.245 11.2308
rfingers 7.12502
rthumb 8.99892 -18.5573
lclavicle 1.08151e-014 1.35919e-014
lhumerus -43.2333 23.6239 75.059
lradius 29.7543
lwrist -1.60538
lhand -24.6886 17.4091
lfingers 7.12502
lthumb 1.81235 47.3811
rfemur -16.8694 -0.218033 18.661
rtibia 38.651
rfoot -11.1893 -8.00894
rtoes 3.97526
lfemur -13.5489 -1.46294 -18.5059
ltibia 29.9537
lfoot -8.37519 7.56127
ltoes -9.0185
461
root 1.51904 17.9718 24.3072 3.94543 2.82398 -3.46765
lowerback 9.29288 0.543319 -0.943478
upperback 0.267486 0.718633 1.86311
thorax -4.97329 0.399033 2.37734
lowerneck -16.575 -6.42583 -10.5042
upperneck 14.3466 -8.21859 10.9157
head 8.0706 -3.49328 4.36053
rclavicle -9.69036e-015 -6.74625e-015
rhumerus -35.1506 -20.2284 -76.2466
rradius 28.3707
rwrist 6.86517
rhand -17.2839 11.984
rfingers 7.12502
rthumb 8.96143 -17.8057
lclavicle -9.69036e-015 -6.74625e-015
lhumerus -43.0846 23.1163 75.3546
lradius 29.7504
lwrist -1.87556
lhand -24.519 17.8635
lfingers 7.12502
lthumb 1.97616 47.8341
rfemur -17.1754 -0.694582 18.3301
rtibia 37.4962
rfoot -11.2076 -7.74913
rtoes 3.78737
lfemur -12.9996 -1.54047 -18.7824
ltibia 29.6735
lfoot -8.2349 7.8977
ltoes -9.74357
462
root 1.51318 17.9741 24.3659 3.88445 2.53958 -3.25527
lowerback 9.43845 0.491304 -1.06583
upperback 0.274415 0.632553 1.79906
thorax -5.04414 0.359148 2.39088
lowerneck -16.9316 -6.39156 -10.5782
upperneck 14.6383 -8.13654 10.8798
head 8.22192 -3.44789 4.36888
rclavicle -9.54322e-016 6.33626e-016
rhumerus -35.2673 -21.0921 -75.5243
rradius 27.4783
rwrist 8.13281
rhand -17.2624 12.4284
rfingers 7.12502
rthumb 8.98213 -17.3604
lclavicle -9.54322e-016 6.33626e-016
lhumerus -42.917 22.3042 76.2162
lradius 30.7975
lwrist -1.71751
lhand -24.3048 20.5864
lfingers 7.12502
lthumb 2.18297 50.555
rfemur -17.4834 -0.974237 18.0598
rtibia 36.2613
rfoot -11.1581 -7.63311
rtoes 3.15673
lfemur -12.5067 -1.60706 -19.0394
ltibia 29.4148
lfoot -8.1192 8.28152
ltoes -9.89946
463
root 1.50355 17.9745 24.4217 3.9082 2.05681 -3.37861
lowerback 9.41339 0.490799 -0.981651
upperback 0.320123 0.642685 1.84311
thorax -4.98231 0.361709 2.38795
lowerneck -17.4566 -6.41339 -10.4108
upperneck 14.905 -8.13239 10.6318
head 8.3836 -3.44065 4.25058
rclavicle 2.32873e-015 -5.29885e-015
rhumerus -35.2931 -21.6832 -74.9535
rradius 26.7966
rwrist 9.1133
rhand -17.0633 12.4183
rfingers 7.12502
rthumb 9.17424 -17.3621
lclavicle 2.32873e-015 -5.29885e-015
lhumerus -42.7224 21.4558 77.044
lradius 32.0219
lwrist -1.5757
lhand -23.9051 23.0876
lfingers 7.12502
lthumb 2.56897 53.0519
rfemur -17.8784 -0.866922 18.2009
rtibia 34.9255
rfoot -11.0967 -7.72332
rtoes 1.36859
lfemur -12.1494 -1.53596 -18.9094
ltibia 29.1713
lfoot -8.0841 8.75025
ltoes -9.4792
464
root 1.49117 17.9782 24.4834 3.96435 1.74902 -3.32792
lowerback 9.4881 0.424154 -1.11699
upperback 0.15417 0.541426 1.85373
thorax -5.1946 0.318447 2.48993
lowerneck -17.6803 -6.35333 -10.1789
upperneck 15.3371 -8.05978 10.309
head 8.53424 -3.41326 4.1123
rclavicle 4.95292e-015 1.55704e-014
rhumerus -35.6545 -21.5832 -74.5211
rradius 26.2329
rwrist 9.6483
rhand -17.1379 12.603
rfingers 7.12502
rthumb 9.10232 -17.1806
lclavicle 4.95292e-015 1.55704e-014
lhumerus -42.7168 21.207 77.2532
lradius 32.5103
lwrist -2.15694
lhand -23.9064 22.9356
lfingers 7.12502
lthumb 2.56774 52.8999
rfemur -18.1876 -0.93035 18.1781
rtibia 33.5038
rfoot -10.6842 -7.87333
rtoes 0.825204
lfemur -11.8084 -1.56505 -18.9518
ltibia 28.9417
lfoot -8.20756 9.06613
ltoes -10.0112
